<?xml version="1.0" standalone="no"?>
<!DOCTYPE svg PUBLIC "-//W3C//DTD SVG 20010904//EN"
 "http://www.w3.org/TR/2001/REC-SVG-20010904/DTD/svg10.dtd">
<svg version="1.0" xmlns="http://www.w3.org/2000/svg"
 width="700.000000pt" height="700.000000pt" viewBox="0 0 700.000000 700.000000"
 preserveAspectRatio="xMidYMid meet">
<metadata>
Created by potrace 1.11, written by Peter Selinger 2001-2013
</metadata>
<g transform="translate(0.000000,700.000000) scale(0.100000,-0.100000)"
fill="#000000" stroke="none">
<path d="M3415 6954 c-44 -25 -114 -64 -155 -87 -41 -22 -88 -48 -105 -58 -16
-10 -52 -30 -80 -45 -44 -23 -212 -117 -330 -184 -22 -12 -74 -41 -115 -63
-41 -22 -79 -43 -85 -47 -5 -4 -37 -22 -70 -40 -33 -18 -73 -41 -90 -50 -16
-9 -57 -32 -90 -50 -33 -18 -253 -141 -490 -273 -236 -132 -459 -255 -495
-274 -36 -20 -69 -39 -75 -43 -5 -4 -41 -24 -78 -44 -37 -20 -82 -45 -100 -55
-18 -10 -135 -75 -262 -145 -126 -71 -236 -133 -243 -139 -33 -26 -200 188
-297 381 -50 100 -115 303 -120 374 -3 47 -55 -115 -84 -267 -6 -27 -12 -59
-15 -71 -4 -20 -10 -66 -26 -189 -9 -71 -6 -359 5 -430 21 -144 96 -326 190
-460 27 -38 94 -114 149 -169 l100 -98 1 -1364 c0 -895 3 -1366 10 -1372 6 -5
39 -25 75 -45 109 -59 194 -106 210 -117 8 -6 22 -13 30 -17 8 -3 65 -34 125
-69 61 -34 135 -75 165 -92 30 -16 168 -92 305 -169 234 -131 308 -172 412
-229 24 -13 80 -45 125 -70 46 -26 101 -57 123 -69 22 -12 63 -34 90 -50 80
-45 305 -170 365 -203 46 -25 762 -424 952 -530 l57 -32 388 216 c213 119 411
229 438 244 28 15 127 70 220 122 94 52 195 109 225 125 30 17 99 56 154 87
54 31 100 56 101 56 1 0 46 25 100 55 53 30 99 55 101 55 2 0 21 10 42 23 20
13 69 41 107 62 39 21 124 68 190 105 66 37 145 80 175 97 30 17 147 82 260
145 113 63 237 132 275 153 39 21 87 49 107 62 21 13 41 23 45 23 5 0 33 16
63 35 l55 34 0 1369 1 1370 34 28 c200 168 356 430 395 662 3 17 8 47 11 65
16 84 10 343 -11 505 -13 96 -87 417 -100 430 -1 2 -11 -32 -20 -75 -52 -232
-176 -473 -327 -636 l-63 -68 -370 207 c-203 113 -395 220 -425 236 -97 54
-143 80 -225 125 -44 25 -105 59 -135 75 -30 17 -89 49 -130 73 -114 64 -170
95 -230 128 -30 16 -64 35 -75 42 -11 6 -47 27 -80 45 -33 18 -114 63 -180
100 -66 37 -145 80 -175 97 -30 16 -111 61 -180 100 -69 38 -150 83 -180 100
-30 17 -111 62 -180 100 -69 39 -150 84 -180 101 -30 16 -92 51 -138 76 -45
25 -83 46 -85 46 -1 0 -38 -21 -82 -46z"/>
</g>
</svg>
