<svg xmlns="http://www.w3.org/2000/svg" width="28" height="27.994" viewBox="0 0 28 27.994">
  <path id="Icon_awesome-instagram" data-name="Icon awesome-instagram" d="M14,9.057a7.177,7.177,0,1,0,7.177,7.177A7.166,7.166,0,0,0,14,9.057ZM14,20.9a4.666,4.666,0,1,1,4.666-4.666A4.675,4.675,0,0,1,14,20.9ZM23.143,8.764A1.674,1.674,0,1,1,21.469,7.09,1.67,1.67,0,0,1,23.143,8.764Zm4.754,1.7A8.285,8.285,0,0,0,25.635,4.6,8.339,8.339,0,0,0,19.77,2.336c-2.311-.131-9.239-.131-11.55,0A8.327,8.327,0,0,0,2.354,4.591,8.312,8.312,0,0,0,.093,10.457c-.131,2.311-.131,9.239,0,11.55a8.285,8.285,0,0,0,2.261,5.865A8.35,8.35,0,0,0,8.22,30.133c2.311.131,9.239.131,11.55,0a8.285,8.285,0,0,0,5.865-2.261A8.339,8.339,0,0,0,27.9,22.006c.131-2.311.131-9.232,0-11.544ZM24.911,24.486a4.724,4.724,0,0,1-2.661,2.661c-1.843.731-6.215.562-8.252.562s-6.415.162-8.252-.562a4.724,4.724,0,0,1-2.661-2.661c-.731-1.843-.562-6.215-.562-8.252s-.162-6.415.562-8.252A4.724,4.724,0,0,1,5.746,5.322C7.589,4.591,11.961,4.76,14,4.76s6.415-.162,8.252.562a4.724,4.724,0,0,1,2.661,2.661c.731,1.843.562,6.215.562,8.252S25.641,22.65,24.911,24.486Z" transform="translate(0.005 -2.238)" fill="#6d6875"/>
</svg>
